<?xml version="1.0" standalone="no"?>
<!DOCTYPE svg PUBLIC "-//W3C//DTD SVG 20010904//EN"
 "http://www.w3.org/TR/2001/REC-SVG-20010904/DTD/svg10.dtd">
<svg version="1.0" xmlns="http://www.w3.org/2000/svg"
 width="48.000000pt" height="48.000000pt" viewBox="0 0 48.000000 48.000000"
 preserveAspectRatio="xMidYMid meet">

<g transform="translate(0.000000,48.000000) scale(0.100000,-0.100000)"
fill="#000000" stroke="none">
<path d="M129 449 c-11 -11 -19 -26 -19 -35 0 -8 -16 -30 -35 -49 l-36 -33 3
-163 3 -164 195 0 195 0 3 160 c3 171 -2 195 -44 214 -13 6 -24 17 -24 24 0 8
-9 26 -20 39 -18 24 -25 26 -111 26 -76 0 -95 -4 -110 -19z m84 -31 c15 -23 1
-48 -27 -48 -33 0 -46 38 -20 57 21 15 34 13 47 -9z m101 9 c28 -21 12 -59
-22 -55 -30 3 -41 30 -22 53 15 18 21 19 44 2z m-164 -117 c0 -25 -30 -41 -53
-29 -39 22 -4 79 35 58 10 -5 18 -18 18 -29z m250 0 c0 -25 -30 -41 -53 -29
-39 22 -4 79 35 58 10 -5 18 -18 18 -29z m-130 -10 c11 -11 20 -27 20 -35 0
-8 8 -15 19 -15 26 0 43 -24 39 -57 l-3 -28 -105 0 -105 0 -3 28 c-4 33 13 57
39 57 11 0 19 7 19 15 0 17 35 55 50 55 6 0 19 -9 30 -20z"/>
</g>
</svg>
